# xmcd
#
# Track frame offsets: 
#        150
#        16465
#        35716
#        48697
#        66023
#        81251
#        100757
#        114479
#        138860
#        155848
#
# Disc length: 2319 seconds
#
# Revision: 2
# Processed by: cddbd v1.4PL0 Copyright (c) Steve Scherf et al.
# Submitted via: ExactAudioCopy v0.90b4
#
DISCID=86090d0a
DTITLE=Ian Tyson - Lost Herd
DYEAR=1900
DGENRE=Country
TTITLE0=Brahmas And Mustangs
TTITLE1=Lost Herd
TTITLE2=Summer's Gone
TTITLE3=Smugglers Cove
TTITLE4=Blue Mountains Of Mexico
TTITLE5=Roll On Owyhee
TTITLE6=Legends Of Cutting
TTITLE7=La Primera
TTITLE8=Elko Blues - The Roan Mare
TTITLE9=Somewhere Over The Rainbow
EXTD=
EXTT0=
EXTT1=
EXTT2=
EXTT3=
EXTT4=
EXTT5=
EXTT6=
EXTT7=
EXTT8=
EXTT9=
PLAYORDER=
